<?xml version="1.0" standalone="no"?>
<!DOCTYPE svg PUBLIC "-//W3C//DTD SVG 1.1//EN" "http://www.w3.org/Graphics/SVG/1.1/DTD/svg11.dtd" >
<svg xmlns="http://www.w3.org/2000/svg">
<metadata>
Created by FontForge 20120731 at Mon Jul  6 14:57:15 2015
 By Ads
</metadata>
<defs>
<font id="jbg" horiz-adv-x="1024" >
  <font-face 
    font-family="jbg"
    font-weight="500"
    font-stretch="normal"
    units-per-em="1024"
    panose-1="2 0 6 3 0 0 0 0 0 0"
    ascent="812"
    descent="-212"
    x-height="792"
    bbox="18 -199.339 1030.75 792"
    underline-thickness="50"
    underline-position="-100"
    unicode-range="U+0078-E62A"
  />
<missing-glyph horiz-adv-x="374" 
d="M34 0v682h272v-682h-272zM68 34h204v614h-204v-614z" />
    <glyph glyph-name=".notdef" horiz-adv-x="374" 
d="M34 0v682h272v-682h-272zM68 34h204v614h-204v-614z" />
    <glyph glyph-name=".null" horiz-adv-x="0" 
 />
    <glyph glyph-name="nonmarkingreturn" horiz-adv-x="341" 
 />
    <glyph glyph-name="x" unicode="x" horiz-adv-x="1001" 
d="M281 543q-27 -1 -53 -1h-83q-18 0 -36.5 -6t-32.5 -18.5t-23 -32t-9 -45.5v-76h912v41q0 16 -0.5 30t-0.5 18q0 13 -5 29t-17 29.5t-31.5 22.5t-49.5 9h-133v-97h-438v97zM955 310v-52q0 -23 0.5 -52t0.5 -58t-10.5 -47.5t-26 -30t-33 -16t-31.5 -4.5q-14 -1 -29.5 -0.5
t-29.5 0.5h-32l-45 128h-439l-44 -128h-29h-34q-20 0 -45 1q-25 0 -41 9.5t-25.5 23t-13.5 29.5t-4 30v167h911zM163 247q-12 0 -21 -8.5t-9 -21.5t9 -21.5t21 -8.5q13 0 22 8.5t9 21.5t-9 21.5t-22 8.5zM316 123q-8 -26 -14 -48q-5 -19 -10.5 -37t-7.5 -25t-3 -15t1 -14.5
t9.5 -10.5t21.5 -4h37h67h81h80h64h36q23 0 34 12t2 38q-5 13 -9.5 30.5t-9.5 34.5q-5 19 -11 39h-368zM336 498v228q0 11 2.5 23t10 21.5t20.5 15.5t34 6h188q31 0 51.5 -14.5t20.5 -52.5v-227h-327z" />
    <glyph glyph-name="uniE600" unicode="&#xe600;" 
d="M444.5 -10q15.5 0 26.5 -11t11 -26.5t-11 -26t-26.5 -10.5t-26 10.5t-10.5 26t10.5 26.5t26 11zM445 31q-33 0 -55.5 -23t-22.5 -55.5t22.5 -55t55 -22.5t55.5 22.5t23 55t-23 55.5t-55 23zM775.5 -10q15.5 0 26.5 -11t11 -26.5t-11 -26t-26.5 -10.5t-26.5 10.5t-11 26
t11 26.5t26.5 11zM775 31q-32 0 -55 -23t-23 -55.5t23 -55t55.5 -22.5t55.5 22.5t23 55t-23 55.5t-56 23zM619 526h-235q-8 0 -14 6t-6 14.5t6 14.5t14 6h235q8 0 14 -6t6 -14.5t-6 -14.5t-14 -6zM895 75h-576q-16 0 -20 16l-123 497h-114q-8 0 -14 6t-6 14.5t6 14.5t14 6
h130q16 0 20 -16l123 -497h542l29 233q1 8 7.5 13.5t15 4.5t13.5 -8t4 -15l-31 -251q-1 -7 -6.5 -12.5t-13.5 -5.5zM835 684q-57 0 -97.5 -40.5t-40.5 -97.5t40.5 -97.5t97.5 -40.5t97.5 40.5t40.5 97.5t-40.5 97.5t-97.5 40.5zM918 526h-63v-63q0 -8 -6 -14t-14.5 -6
t-14.5 6t-6 14v63h-62q-9 0 -15 6t-6 14.5t6 14.5t15 6h62v62q0 9 6 15t14.5 6t14.5 -6t6 -15v-62h63q8 0 14 -6t6 -14.5t-6 -14.5t-14 -6zM814 526z" />
    <glyph glyph-name="uniE601" unicode="&#xe601;" 
d="M95 324h833v-72h-833v72zM476 704h71v-832h-71v832z" />
    <glyph glyph-name="uniE602" unicode="&#xe602;" 
d="M95 324h833v-72h-833v72z" />
    <glyph glyph-name="uniE603" unicode="&#xe603;" 
d="M294 -137q-6 6 -6 14.5t6 14.5l423 423l-425 424q-6 6 -6 14.5t6 14.5t14.5 6t14.5 -6l439 -439q6 -6 6 -14.5t-6 -14.5l-437 -437q-6 -6 -14.5 -6t-14.5 6z" />
    <glyph glyph-name="uniE604" unicode="&#xe604;" 
d="M779 -21q-62 0 -105.5 43.5t-43.5 105.5t43.5 105.5t105.5 43.5t105.5 -43.5t43.5 -105.5t-43.5 -105.5t-105.5 -43.5zM779 250q-51 0 -86.5 -35.5t-35.5 -86t35.5 -86.5t86.5 -36t86.5 36t35.5 86.5t-35.5 86t-86.5 35.5zM779.5 115q-5.5 0 -9.5 4t-4 9v76q0 6 4 10
t9.5 4t9.5 -4t4 -10v-76q0 -5 -4 -9t-9.5 -4zM841 115h-62q-6 0 -9.5 4t-3.5 9.5t3.5 9.5t9.5 4h62q5 0 9 -4t4 -9.5t-4 -9.5t-9 -4zM298 220h-146q-23 0 -39.5 16t-16.5 39v283q0 24 16.5 40t39.5 16h449q23 0 39.5 -16t16.5 -40v-107q0 -6 -4 -10t-9.5 -4t-9.5 4t-4 10
v107q0 12 -8.5 20.5t-20.5 8.5h-449q-12 0 -20.5 -8.5t-8.5 -20.5v-283q0 -12 8.5 -20.5t20.5 -8.5h146q6 0 9.5 -4t3.5 -9.5t-3.5 -9t-9.5 -3.5zM467 -38q-3 0 -6 1q-7 4 -7 12l-2 95l-112 -1q-23 0 -39.5 16.5t-16.5 39.5v283q0 23 16.5 39.5t39.5 16.5h449
q23 0 39.5 -16.5t16.5 -39.5v-155q0 -5 -4 -9t-9.5 -4t-9.5 3.5t-4 9.5v155q0 12 -8.5 20.5t-20.5 8.5h-449q-12 0 -20.5 -8.5t-8.5 -20.5v-283q0 -12 8.5 -20.5t20.5 -8.5l126 1q5 0 9 -3.5t4 -9.5l1 -80l108 89q4 3 8 3h56q5 0 9 -4t4 -9.5t-4 -9.5t-9 -4h-51l-125 -104
q-4 -3 -9 -3zM485 466h-253q-6 0 -10 4t-4 9.5t4 9.5t10 4h253q6 0 10 -4t4 -9.5t-4 -9.5t-10 -4zM652 350h-254q-6 0 -10 3.5t-4 9.5t4 9.5t10 3.5h254q5 0 9 -3.5t4 -9.5t-4 -9.5t-9 -3.5zM605 250h-207q-6 0 -10 4t-4 9.5t4 9.5t10 4h207q5 0 9 -4t4 -9.5t-4 -9.5t-9 -4z
M291 378h-59q-6 0 -10 4t-4 9.5t4 9.5t10 4h59q6 0 10 -4t4 -9.5t-4 -9.5t-10 -4z" />
    <glyph glyph-name="uniE605" unicode="&#xe605;" 
d="M808 619h-429q-31 0 -52.5 -22t-21.5 -52v-123l-159 -91q-7 -6 -7 -14v-248q0 -9 5 -14.5t12 -5.5t12.5 5.5t5.5 14.5v238l156 90q14 5 14 18v1v125q0 16 11 27.5t28 11.5h421q16 0 27.5 -11.5t11.5 -27.5v-413q0 -8 6 -13.5t14 -5.5t13.5 5.5t5.5 13.5v417
q0 30 -21.5 52t-52.5 22zM277 251q-8 0 -13.5 -5.5t-5.5 -13t5.5 -13t13.5 -5.5h98q18 0 27.5 9t9.5 19l1 9v78q0 7 -5.5 12.5t-13.5 5.5t-13.5 -5.5t-5.5 -12.5v-1v-77h-98zM718 150q-37 0 -64 -24.5t-32 -60.5h-196q-5 37 -32 61t-64 24q-41 0 -69.5 -28t-28.5 -68.5
t28.5 -68.5t69.5 -28q34 0 60.5 21.5t34.5 54.5h198q8 -33 34.5 -54.5t60.5 -21.5q40 0 68.5 28t28.5 68.5t-28.5 68.5t-68.5 28zM329.5 -2q-23.5 0 -39.5 16t-16 39.5t16 39.5t39.5 16t40 -16t16.5 -39.5t-16.5 -39.5t-40 -16zM718 -2q-23 0 -39.5 16t-16.5 39.5t16.5 39.5
t39.5 16t39.5 -16t16.5 -39.5t-16.5 -39.5t-39.5 -16z" />
    <glyph glyph-name="uniE606" unicode="&#xe606;" 
d="M881 560h-725q-19 0 -32.5 -13.5t-13.5 -31.5v-454q0 -18 13.5 -31.5t32.5 -13.5h725q19 0 32 13.5t13 31.5v454q0 18 -13 31.5t-32 13.5zM896 61q0 -6 -4.5 -10.5t-10.5 -4.5h-725q-7 0 -11 4.5t-4 10.5v287h755v-287zM896 379h-755v60h755v-60zM896 469h-755v46
q0 6 4 10.5t11 4.5h725q6 0 10.5 -4.5t4.5 -10.5v-46zM503 137h-302v-30h302v30zM382 228h-181v-31h181v31zM745 107h61q12 0 21 8.5t9 20.5v2q0 12 -9 20.5t-21 8.5h-61q-13 0 -21.5 -8.5t-8.5 -20.5v-2q0 -12 8.5 -20.5t21.5 -8.5z" />
    <glyph glyph-name="uniE607" unicode="&#xe607;" 
d="M899 -124h-782q-8 0 -14 6t-6 14v745q0 9 6 15t14 6h452q8 0 14 -6t6 -14.5t-6 -14.5t-14 -6h-431v-704h741v397q0 9 6 15t14.5 6t14.5 -6t6 -15v-418q0 -8 -6 -14t-15 -6zM271 6q-8 0 -14 6q-7 7 -6 17l13 145q0 8 5 13l425 429q6 6 14 6q9 0 15 -6l132 -130
q6 -6 6 -14.5t-6 -14.5l-424 -430q-5 -5 -13 -6l-145 -14q-1 -1 -2 -1zM304 163l-10 -113l113 11l405 410l-103 102zM841 450q-9 0 -15 6l-132 131q-6 6 -6 14.5t6 14.5l87 88q6 6 14 7h1q8 0 14 -6l132 -131q6 -6 6.5 -14.5t-5.5 -14.5l-88 -88q-6 -6 -14 -7zM737 602
l104 -102l58 59l-103 102z" />
    <glyph glyph-name="uniE608" unicode="&#xe608;" 
d="M652 105q-5 0 -10 4q-11 10 -2 21l99 121q62 79 62 179q0 119 -84.5 203.5t-204 84.5t-204.5 -84.5t-85 -203.5q0 -124 91 -210l97 -88q11 -10 0.5 -21.5t-21.5 -1.5l-97 89q-47 44 -73 103q-27 61 -27 129q0 132 93.5 225.5t226 93.5t226 -93.5t93.5 -225.5
q0 -55 -19 -107q-17 -49 -50 -91l-99 -121q-5 -6 -12 -6zM377 0q-13 0 -15 13q-1 6 3 11.5t10 5.5l281 41q7 1 12 -2.5t6 -10t-3 -11.5t-10 -6l-282 -41h-2zM382 -76q-13 0 -15 13q-1 6 3 11t10 6l281 41q7 1 12 -2.5t6 -10t-3 -11.5t-10 -6l-282 -41h-2zM513 -177
q-32 0 -59 16t-42 44q-7 13 6.5 20.5t20.5 -6.5q11 -20 31 -31.5t43 -11.5q22 0 41.5 11t30.5 31q8 13 21.5 5t5.5 -21q-15 -26 -42 -41.5t-57 -15.5zM330.5 408q-6.5 0 -11 4.5t-4.5 10.5q0 82 58 139.5t139 57.5q7 0 11.5 -4.5t4.5 -11t-4.5 -11t-11.5 -4.5
q-68 0 -117 -48.5t-49 -117.5q0 -6 -4.5 -10.5t-11 -4.5z" />
    <glyph glyph-name="uniE609" unicode="&#xe609;" 
d="M396 209h-118v117h118v-117zM573 326h-118v-117h118v117zM750 326h-118v-117h118v117zM396 155h-118v-117h118v117zM573 155h-118v-117h118v117zM750 155h-118v-117h118v117zM793 562q0 -15 -10.5 -25.5t-25.5 -10.5t-25.5 10.5t-10.5 25.5v91q0 15 10.5 25.5t25.5 10.5
t25.5 -10.5t10.5 -25.5v-91zM305 653q0 15 -10.5 25.5t-25.5 10.5t-25.5 -10.5t-10.5 -25.5v-91q0 -15 10.5 -25.5t25.5 -10.5t25.5 10.5t10.5 25.5v91zM837 600v-37q0 -33 -23.5 -56t-56.5 -23t-56.5 23t-23.5 56v37h-328v-36q0 -33 -23.5 -56.5t-56.5 -23.5t-56.5 23.5
t-23.5 56.5v36h-87v-713h820v713h-85zM842 -34h-660v443h660v-443z" />
    <glyph glyph-name="uniE60A" unicode="&#xe60a;" 
d="M512 -57l-14 15q-25 25 -61 61.5t-103 112t-90 113.5q-45 75 -45 162q0 130 91.5 221.5t221.5 91.5t221.5 -91.5t91.5 -221.5q0 -85 -42 -158q-23 -39 -90.5 -115.5t-104 -113.5t-62.5 -62zM512 679q-113 0 -192.5 -79.5t-79.5 -192.5q0 -76 39 -140q45 -75 233 -266
q191 193 235 269q37 63 37 137q0 113 -79.5 192.5t-192.5 79.5zM771 -135h-516q-8 0 -14 6t-6 14.5t6 14.5t14 6h516q8 0 14 -6t6 -14.5t-6 -14.5t-14 -6z" />
    <glyph glyph-name="uniE60B" unicode="&#xe60b;" 
d="M957 395.5q-6 18.5 -25 21.5l-271 42l-120 259q-9 18 -29 18q-21 0 -29 -18l-122 -258l-271 -41q-19 -3 -25.5 -21.5t7.5 -32.5l196 -202l-47 -285q-3 -20 13.5 -31.5t33.5 -1.5l242 133l242 -134q7 -4 15 -4h1q13 0 22.5 9.5t9.5 22.5q0 6 -2 11l-45 279l197 201
q13 14 7 32.5z" />
    <glyph glyph-name="uniE60C" unicode="&#xe60c;" 
d="M767 -160q-8 0 -15 4l-242 134l-242 -133q-17 -10 -33.5 1.5t-13.5 31.5l47 285l-196 202q-14 14 -8 32.5t25 21.5l156 26q13 3 23.5 -5t13 -21t-5.5 -23.5t-21 -13.5l-95 -16l166 -170q11 -12 8 -28l-39 -235l200 110q15 8 31 -1l199 -110l-38 236q-3 16 9 27l164 169
l-225 34q-17 3 -24 18l-100 213l-100 -212q-5 -12 -17.5 -16.5t-24.5 1t-16.5 18t0.5 24.5l130 274q8 18 29 18q20 0 29 -18l120 -259l271 -42q19 -3 25 -21.5t-7 -32.5l-197 -201l46 -285q3 -20 -14 -31q-8 -6 -18 -6z" />
    <glyph glyph-name="uniE60D" unicode="&#xe60d;" 
d="M936 486h-817q-9 0 -15 6t-6 14v131q0 9 6 15t15 6h817q9 0 15 -6t6 -15v-131q0 -8 -6 -14t-15 -6zM139 527h777v90h-777v-90zM717.5 627q-8.5 0 -14.5 6t-6 14v71h-339v-71q0 -8 -6 -14t-14.5 -6t-14.5 6t-6 14v91q0 9 6 15t15 6h379q9 0 15 -6t6 -15v-91q0 -8 -6 -14
t-14.5 -6zM862 -122h-667q-9 0 -15 6t-6 14v608q0 9 6 15t15 6h667q9 0 15 -6t6 -15v-608q0 -8 -6 -14t-15 -6zM215 -81h627v567h-627v-567zM360.5 -102q-8.5 0 -14.5 6t-6 15v571q0 8 6 14t14.5 6t14.5 -6t6 -14v-571q0 -9 -6 -15t-14.5 -6zM534.5 -102q-8.5 0 -14.5 6
t-6 15v571q0 8 6 14t14.5 6t14.5 -6t6 -14v-571q0 -9 -6 -15t-14.5 -6zM703.5 -102q-8.5 0 -14.5 6t-6 15v571q0 8 6 14t14.5 6t14.5 -6t6 -14v-571q0 -9 -6 -15t-14.5 -6z" />
    <glyph glyph-name="uniE60E" unicode="&#xe60e;" 
d="M512 -151q-89 0 -171 35q-79 33 -139.5 93.5t-93.5 139.5q-35 82 -35 171t35 171q33 79 93.5 139.5t139.5 93.5q82 35 171 35t171 -35q79 -33 139.5 -93.5t93.5 -139.5q35 -82 35 -171t-35 -171q-33 -79 -93.5 -139.5t-139.5 -93.5q-82 -35 -171 -35zM512 696
q-111 0 -205 -54.5t-148.5 -148.5t-54.5 -205t54.5 -205t148.5 -148.5t205 -54.5t205 54.5t148.5 148.5t54.5 205t-54.5 205t-148.5 148.5t-205 54.5zM512 151q-14 0 -23.5 9.5t-9.5 23.5v343q0 14 9.5 23.5t23.5 9.5t23.5 -9.5t9.5 -23.5v-343q0 -14 -9.5 -23.5t-23.5 -9.5
zM472 73q0 -17 12 -28.5t28 -11.5t28 11.5t12 28.5q0 16 -12 27.5t-28 11.5t-28 -11.5t-12 -27.5z" />
    <glyph glyph-name="uniE60F" unicode="&#xe60f;" 
d="M727.5 -171q-8.5 0 -14.5 6l-437 436q-6 6 -6 14.5t6 14.5l439 440q6 6 14.5 6t14.5 -6t6 -14.5t-6 -14.5l-424 -425l422 -422q6 -6 6 -14.5t-6 -14.5t-14.5 -6z" />
    <glyph glyph-name="uniE610" unicode="&#xe610;" 
d="M936.5 368.5q-6.5 5.5 -15.5 4.5t-14 -8l-36 -45q-2 27 -7 52q-22 107 -92.5 186t-171 112.5t-206 11.5t-184.5 -93t-112.5 -172t-11.5 -207.5t93 -186t171.5 -113t205.5 -11.5q114 24 198 109h1q0 1 0.5 2t1.5 1q2 5 2 9q0 7 -5 12t-12 5t-13 -5q-76 -77 -179 -98
q-96 -20 -187 10.5t-155 102t-84 168t10.5 188t101.5 156t166.5 84.5t186.5 -10.5t155 -102.5t84 -168q5 -22 7 -45l-44 35q-6 6 -15 5t-14 -8t-4.5 -15.5t7.5 -14.5l80 -64q7 -6 16 -5t14 8l65 80v1q5 6 4 15t-7.5 14.5zM464 69q0 -7 5 -12.5t12.5 -5.5t13 5.5t5.5 12.5
v108h109q8 0 13 5.5t5 13t-5 13t-13 5.5h-109v56h109q8 0 13 5t5 12.5t-5 13t-13 5.5h-109v33l108 106v1q6 5 6.5 12.5t-4.5 13t-12.5 6t-13.5 -4.5l-102 -101l-107 106q-5 5 -12.5 4.5t-12.5 -6.5t-4.5 -13.5t5.5 -12.5l113 -110v-34h-110q-7 0 -12.5 -5.5t-5.5 -13
t5.5 -12.5t12.5 -5h110v-56l-110 -1q-7 0 -12.5 -5t-5.5 -12.5t5.5 -13t12.5 -5.5h110v-108z" />
    <glyph glyph-name="uniE611" unicode="&#xe611;" 
d="M940 -142h-822q-12 0 -20 8t-8 19v702q0 12 8 20t20 8h822q12 0 20 -8t8 -20v-702q0 -11 -8 -19t-20 -8zM121 -112h816v696h-816v-696zM953 147h-425q-7 0 -11.5 4.5t-4.5 11.5v197q0 7 4.5 11t11.5 4h425q6 0 10.5 -4t4.5 -11v-197q0 -7 -4.5 -11.5t-10.5 -4.5zM543 178
h394v167h-394v-167zM575 264q0 -13 9 -22.5t22.5 -9.5t23 9.5t9.5 22.5t-9.5 22.5t-23 9.5t-22.5 -9.5t-9 -22.5zM612 586h-522v63q0 35 25 59t60 24h354q35 0 59 -24t24 -59v-63z" />
    <glyph glyph-name="uniE612" unicode="&#xe612;" horiz-adv-x="1030" 
d="M498 639v-702l-291 178h-113q-12 0 -20 8.5t-8 20.5v288q0 12 8 20.5t20 8.5h113zM507 701l-313 -192h-100q-31 0 -53.5 -22.5t-22.5 -54.5v-288q0 -32 22.5 -54.5t53.5 -22.5h100l313 -192q16 0 27.5 11.5t11.5 27.5v748q0 16 -11.5 27.5t-27.5 11.5zM857 -97
q-10 0 -17 7t-7 17t7 17q93 93 126 218.5t0 251t-126 218.5q-7 7 -7 17t7 17t17 7t17 -7q102 -103 138.5 -240.5t0 -275t-138.5 -240.5q-7 -7 -17 -7zM712 89q-10 0 -17 7t-7 17t7 17q65 66 65 158t-65 158q-7 7 -7 17t7 17t17 7t17 -7q80 -80 80 -192t-80 -192
q-7 -7 -17 -7z" />
    <glyph glyph-name="uniE613" unicode="&#xe613;" 
d="M511 -145q-88 0 -168 34q-78 33 -138 93t-92 138q-34 80 -34 168t34 168q32 78 92 138t138 93q80 34 168 34t169 -34q77 -33 137 -93t93 -138q34 -80 34 -168t-34 -168q-33 -78 -93 -138t-137 -93q-81 -34 -169 -34zM511.5 680q-106.5 0 -196.5 -52.5t-142.5 -143
t-52.5 -196.5t52.5 -196.5t142.5 -143t196.5 -52.5t196.5 52.5t142.5 143t52.5 196.5t-52.5 196.5t-142.5 143t-196.5 52.5zM204 348q-12 0 -15 12q-1 6 2.5 11.5t9.5 6.5l232 47q6 1 11 -2.5t6.5 -9.5t-2 -11.5t-9.5 -6.5l-232 -47h-3zM815 348h-3l-231 47q-6 1 -9.5 6.5
t-2.5 11.5t6.5 9.5t11.5 2.5l231 -47q7 -1 10.5 -6.5t1.5 -11.5q-2 -12 -15 -12zM638 92q-4 0 -7 2q-88 48 -174 29q-43 -10 -67 -28q-13 -9 -22 3t3 21q30 23 79 34q43 9 87 4q55 -7 109 -36q13 -8 6 -21q-5 -8 -14 -8z" />
    <glyph glyph-name="uniE614" unicode="&#xe614;" 
d="M678 60q-38 -40 -123 -10t-168 113q-40 41 -68.5 86.5t-41 84.5t-11 71t17.5 49l54 54l-221 222q-72 -72 -88 -171.5t27 -186.5l-2 -1q53 -120 93 -186.5t117.5 -144t144 -117.5t186.5 -93l1 2q87 -43 186.5 -27t171.5 88l-222 221zM363 680l-74 74q-63 63 -146 -2
l218 -218q64 84 2 146zM978 65l-74 74q-62 62 -146 -2l219 -218q64 83 1 146z" />
    <glyph glyph-name="uniE615" unicode="&#xe615;" 
d="M913 -152h-804q-17 0 -28.5 12t-11.5 28v804q0 17 11.5 28.5t28.5 11.5h341q8 0 14 -6t6 -14.5t-6 -14.5t-14 -6h-340v-802h802v338q0 8 6 14t14.5 6t14.5 -6t6 -14v-339q0 -16 -11.5 -28t-28.5 -12zM932.5 397q-8.5 0 -14.5 6t-6 14v274h-273q-8 0 -14 6t-6 14.5t6 14.5
t14 6h274q17 0 28.5 -11.5t11.5 -28.5v-275q0 -8 -6 -14t-14.5 -6zM318.5 75q-8.5 0 -14.5 6t-6 14.5t6 14.5l611 608q6 6 14.5 6t14.5 -6t6 -14.5t-7 -14.5l-610 -608q-6 -6 -14.5 -6z" />
    <glyph glyph-name="uniE616" unicode="&#xe616;" 
d="M171 179q-50 0 -85.5 35.5t-35.5 85.5t35.5 85.5t85.5 35.5t85.5 -35.5t35.5 -85.5t-35.5 -85.5t-85.5 -35.5zM171.5 391q-37.5 0 -64 -27t-26.5 -64t26.5 -64t64 -27t64 27t26.5 64t-26.5 64t-64 27zM512 179q-50 0 -85.5 35.5t-35.5 85.5t35.5 85.5t85.5 35.5
t85.5 -35.5t35.5 -85.5t-35.5 -85.5t-85.5 -35.5zM512 391q-37 0 -64 -27t-27 -64t27 -64t64 -27t64 27t27 64t-27 64t-64 27zM856 179q-50 0 -85.5 35.5t-35.5 85.5t35.5 85.5t85.5 35.5t85.5 -35.5t35.5 -85.5t-35.5 -85.5t-85.5 -35.5zM855.5 391q-37.5 0 -64 -27
t-26.5 -64t26.5 -64t64 -27t64 27t26.5 64t-26.5 64t-64 27z" />
    <glyph glyph-name="uniE617" unicode="&#xe617;" 
d="M65 288q0 -44 31 -75t75 -31t75 31t31 75t-31 75t-75 31t-75 -31t-31 -75zM406 288q0 -44 31 -75t75 -31t75 31t31 75t-31 75t-75 31t-75 -31t-31 -75zM750 288q0 -44 31 -75t75 -31t75 31t31 75t-31 75t-75 31t-75 -31t-31 -75z" />
    <glyph glyph-name="uniE618" unicode="&#xe618;" 
d="M661 -162q-8 0 -14 6l-108 102q-6 6 -6.5 14.5t5.5 14.5t14.5 6t14.5 -5l94 -89l94 89q6 5 14 5h164v680h-844v-680h359q9 0 15 -6t6 -14.5t-6 -14.5t-15 -6h-360q-16 0 -28 12t-12 28v682q0 16 12 28t28 12h846q16 0 28 -12t12 -28v-682q0 -16 -12 -28t-28 -12h-157
l-102 -96q-6 -6 -14 -6zM221 352q0 -18 12.5 -30.5t30.5 -12.5t30.5 12.5t12.5 30.5v0q0 17 -12.5 29.5t-30.5 12.5t-30.5 -12.5t-12.5 -29.5zM468 352q0 -18 12.5 -30.5t30.5 -12.5t30.5 12.5t12.5 30.5v0q0 17 -12.5 29.5t-30.5 12.5t-30.5 -12.5t-12.5 -29.5zM711 352
q0 -18 12.5 -30.5t30.5 -12.5t30.5 12.5t12.5 30.5v0q0 17 -12.5 29.5t-30.5 12.5t-30.5 -12.5t-12.5 -29.5z" />
    <glyph glyph-name="uniE619" unicode="&#xe619;" 
d="M122 288q0 -106 52 -196t142 -142t196 -52t196 52t142 142t52 196t-52 196t-142 142t-196 52t-196 -52t-142 -142t-52 -196z" />
    <glyph glyph-name="uniE61A" unicode="&#xe61a;" 
d="M511.5 -155q-90.5 0 -172.5 35q-80 33 -141.5 94.5t-95.5 141.5q-35 82 -35 172.5t35 173.5q34 79 95.5 140.5t141.5 95.5q82 35 172.5 35t172.5 -35q80 -34 141.5 -95.5t94.5 -140.5q35 -83 35 -173.5t-35 -172.5q-33 -80 -94.5 -141.5t-141.5 -94.5q-82 -35 -172.5 -35
zM511 702q-112 0 -207 -55.5t-150.5 -150.5t-55.5 -207t55.5 -207.5t150.5 -151t207 -55.5t207.5 55.5t151 151t55.5 207.5t-55.5 207t-151 150.5t-207.5 55.5zM446 88l-238 238q-10 10 0.5 21t21.5 0l216 -215l347 346q11 11 21.5 0.5t-0.5 -21.5z" />
    <glyph glyph-name="uniE61B" unicode="&#xe61b;" 
d="M94 318q-8 0 -13 5q-5 6 -5 13.5t6 12.5l418 383q12 11 24 0l417 -383q5 -5 5.5 -12.5t-4.5 -13t-12.5 -6t-12.5 4.5l-405 372l-406 -372q-5 -4 -12 -4zM864 -159h-227q-7 0 -12.5 5.5t-5.5 12.5v320h-215v-320q0 -7 -5.5 -12.5t-12.5 -5.5h-228q-7 0 -12.5 5.5
t-5.5 12.5v426q0 8 6 13l354 339q12 11 24 0l353 -339q5 -5 5 -13v-426q0 -7 -5 -12.5t-13 -5.5zM655 -123h191v401l-334 321l-336 -321v-401h192v320q0 8 5 13t13 5h251q8 0 13 -5t5 -13v-320zM158.5 381q-7.5 0 -13 5.5t-5.5 12.5v257q0 7 5.5 12.5t12.5 5.5h116
q7 0 12 -5.5t5 -12.5v-152q0 -7 -5 -12.5t-12.5 -5.5t-12.5 5.5t-5 12.5v134h-80v-239q0 -7 -5 -12.5t-12.5 -5.5z" />
    <glyph glyph-name="uniE61C" unicode="&#xe61c;" 
d="M511.5 -124q-12.5 0 -21.5 9t-9 21v740v1v26q1 20 19.5 27.5t33.5 -6.5l323 -323q9 -9 9 -21.5t-9 -21.5t-21.5 -9t-21.5 9l-272 271v-693q0 -12 -9 -21t-21.5 -9zM192.5 319q-12.5 0 -21.5 9t-9.5 21.5t8.5 21.5l221 223q9 9 22 9t22 -9t9 -21.5t-9 -21.5l-221 -223
q-9 -9 -21.5 -9z" />
    <glyph glyph-name="uniE61D" unicode="&#xe61d;" 
d="M511 578q11 0 20 -2q51 -11 78 -28q31 -20 37 -51t2 -66q0 -5 -3 -18q-5 -23 -5 -37q0 -15 9 -36q2 -5 3 -7q0 -6 -6 -29l-1 -2v0q-1 -2 -2 -6q-7 -27 -13 -37q-1 -3 -5 -9q-16 -24 -18 -46t-5 -33t-7 -14q-24 -12 -22 -54q1 -11 4 -31v-5q5 -82 82 -97q39 -8 75 -20
q1 -1 5 -3q-103 -69 -220 -69q-74 0 -139 22q-46 14 -85 38q-4 3 -8 5q13 5 16 6v0q35 13 75 21q21 4 35 13t19.5 22.5t6.5 23t2 25.5q0 8 1 12v6q7 25 4 48.5t-21 32.5q-4 3 -8 16q-5 14 -5 32q-2 33 -18 53q-7 9 -14 23q-17 36 -12 48v0q1 0 2 3q6 11 8 19q5 17 -3 38
q-1 3 -1 4q-1 4 -2 13q-2 14 -3 22q-4 30 0 61q1 13 29 42q22 23 53 37t60 14zM511 614q-37 0 -75 -17.5t-64 -44.5q-36 -38 -39 -62q-5 -36 1 -71q1 -7 2.5 -19t1.5 -16q0 -3 3.5 -12.5t2.5 -15.5q-1 -2 -8 -15q-13 -28 12 -80q8 -18 18 -29q9 -11 10 -33q2 -63 33 -78
q2 -5 1.5 -13.5t-2.5 -23t-2 -15.5q-1 -5 -1 -15.5t-0.5 -13.5t-1.5 -10t-3 -9.5t-6 -6.5t-9.5 -5.5t-13.5 -3.5q-42 -8 -80 -22q-5 -1 -24 -8.5t-36 -14.5l-17 -7q35 -29 62 -45q105 -66 243 -66q49 0 96.5 12t80.5 28.5t59 33t39 27.5l13 12q-55 26 -61 28q-38 14 -80 22
q-28 5 -39.5 19.5t-13.5 44.5q0 1 -0.5 7.5t-1.5 14t-1.5 15t0 13t1.5 6.5q25 13 31 76q1 8 3.5 14t8.5 14.5t8 11.5q7 14 18 51q9 35 7 48q-1 4 -6 16.5t-5 19.5q0 9 3.5 27t4.5 24q5 41 -3 77q-5 25 -18.5 43.5t-34.5 31t-42 19.5t-47 13q-14 3 -28 3zM509.5 739
q-91.5 0 -174.5 -35.5t-143 -95.5t-95.5 -143t-35.5 -174t35.5 -174.5t95.5 -143.5t143 -95.5t174.5 -35.5t174.5 35.5t143 95.5t95.5 143.5t35.5 174.5t-35.5 174t-95.5 143t-143 95.5t-174.5 35.5zM509.5 -122q-112.5 0 -207.5 55t-150 150t-55 207.5t55 207.5t150 150
t207.5 55t207.5 -55t150 -150t55 -207.5t-55 -207.5t-150 -150t-207.5 -55z" />
    <glyph glyph-name="uniE61E" unicode="&#xe61e;" 
d="M927 342h-835q-8 0 -13 5t-5 13v137q0 7 5 12.5t13 5.5h835q7 0 12.5 -5.5t5.5 -12.5v-137q0 -8 -5.5 -13t-12.5 -5zM110 378h799v101h-799v-101zM878 -140h-735q-8 0 -13 5.5t-5 12.5v479q0 8 5 13t12.5 5t13 -5t5.5 -13v-461h699v461q0 8 5 13t12.5 5t13 -5t5.5 -13
v-479q0 -7 -5.5 -12.5t-12.5 -5.5zM512 -121q-7 0 -12.5 5.5t-5.5 12.5v730q0 7 5.5 12.5t12.5 5.5t12.5 -5.5t5.5 -12.5v-730q0 -7 -5.5 -12.5t-12.5 -5.5zM692 489q-8 0 -13 6t-4.5 13.5t5.5 12.5q30 27 30 68q0 40 -26.5 66.5t-65.5 26.5q-28 0 -51.5 -15.5t-34.5 -41.5
q-2 -7 -9 -9.5t-14 0t-10 9.5t0 14q15 36 47.5 57.5t71.5 21.5q55 0 92 -38q36 -37 36 -91q0 -57 -42 -95q-5 -5 -12 -5zM333 489q-7 0 -12 5q-42 38 -42 95q0 54 36 91q38 38 92 38q39 0 71.5 -21.5t47.5 -57.5q3 -7 0 -14t-10 -9.5t-13.5 0t-9.5 9.5q-11 26 -34.5 41.5
t-51.5 15.5q-39 0 -65.5 -26.5t-26.5 -66.5q0 -41 30 -68q6 -5 6 -12.5t-5 -13.5t-13 -6z" />
    <glyph glyph-name="uniE61F" unicode="&#xe61f;" 
d="M429 -141q-30 0 -51.5 21.5t-21.5 51.5t21.5 51.5t51.5 21.5t51.5 -21.5t21.5 -51.5t-21.5 -51.5t-51.5 -21.5zM429 -31q-15 0 -26 -11t-11 -26t11 -26t26 -11t26 11t11 26t-11 26t-26 11zM765.5 -141q-30.5 0 -52 21.5t-21.5 51.5t21.5 51.5t52 21.5t52 -21.5
t21.5 -51.5t-21.5 -51.5t-52 -21.5zM765.5 -31q-15.5 0 -26.5 -11t-11 -26t11 -26t26.5 -11t26.5 11t11 26t-11 26t-26.5 11zM895 78h-576q-14 0 -18 14l-123 550h-116q-7 0 -12.5 5t-5.5 12.5t5.5 13t12.5 5.5h130q14 0 18 -14l123 -550h546l44 400h-582q-7 0 -12.5 5.5
t-5.5 13t5.5 12.5t12.5 5h602q8 0 13.5 -6t4.5 -14l-48 -436q-1 -7 -6 -11.5t-12 -4.5z" />
    <glyph glyph-name="uniE620" unicode="&#xe620;" 
d="M509.5 739q-91.5 0 -174.5 -35.5t-143 -95.5t-95.5 -143t-35.5 -174t35.5 -174.5t95.5 -143.5t143 -95.5t174.5 -35.5t174.5 35.5t143 95.5t95.5 143.5t35.5 174.5t-35.5 174t-95.5 143t-143 95.5t-174.5 35.5zM771 -28q-20 9 -25 11q-38 14 -80 22q-28 5 -39.5 19.5
t-13.5 44.5q0 1 -1 7.5t-2 13.5v16q-1 7 -0.5 12.5t1.5 6.5q25 13 31 76q1 8 3.5 14t8.5 14.5t8 11.5q7 14 18 51q9 35 7 48q-1 4 -6 16.5t-5 19.5q0 9 3.5 27t4.5 24q4 41 -3 77q-5 25 -18.5 43.5t-34.5 31t-42 19.5t-47 13q-42 9 -88.5 -8.5t-78.5 -50.5q-36 -38 -39 -62
q-5 -36 1 -71q1 -7 2 -19t2 -16q0 -3 3.5 -12.5t2.5 -15.5q-1 -2 -8 -15q-13 -28 12 -80q8 -18 18 -29q9 -11 10 -33q2 -63 33 -78q2 -5 1.5 -13.5t-2.5 -23t-2 -15.5q-1 -5 -1 -15.5t-0.5 -13.5t-1.5 -10t-3 -9.5t-6 -6.5t-9.5 -5.5t-13.5 -3.5q-43 -8 -80 -22
q-19 -6 -38 -15q-73 58 -114.5 142.5t-41.5 180.5q0 112 55 207t150.5 150t207 55t206.5 -55t150.5 -150t55.5 -207q0 -95 -40 -178t-111 -141z" />
    <glyph glyph-name="uniE621" unicode="&#xe621;" 
d="M927 342h-835q-8 0 -13 5t-5 13v137q0 7 5 12.5t13 5.5h835q7 0 12.5 -5.5t5.5 -12.5v-137q0 -8 -5.5 -13t-12.5 -5zM878 -140h-735q-8 0 -13 5.5t-5 12.5v479q0 8 5 13t12.5 5t13 -5t5.5 -13v-461h699v461q0 8 5 13t12.5 5t13 -5t5.5 -13v-479q0 -7 -5.5 -12.5
t-12.5 -5.5zM512 -121q-7 0 -12.5 5.5t-5.5 12.5v730q0 7 5.5 12.5t12.5 5.5t12.5 -5.5t5.5 -12.5v-730q0 -7 -5.5 -12.5t-12.5 -5.5zM692 489q-8 0 -13 6t-4.5 13.5t5.5 12.5q30 27 30 68q0 40 -26.5 66.5t-65.5 26.5q-28 0 -51.5 -15.5t-34.5 -41.5q-2 -7 -9 -9.5t-14 0
t-10 9.5t0 14q15 36 47.5 57.5t71.5 21.5q55 0 92 -38q36 -37 36 -91q0 -57 -42 -95q-5 -5 -12 -5zM333 489q-7 0 -12 5q-42 38 -42 95q0 54 36 91q38 38 92 38q39 0 71.5 -21.5t47.5 -57.5q3 -7 0 -14t-10 -9.5t-13.5 0t-9.5 9.5q-11 26 -34.5 41.5t-51.5 15.5
q-39 0 -65.5 -26.5t-26.5 -66.5q0 -41 30 -68q6 -5 6 -12.5t-5 -13.5t-13 -6z" />
    <glyph glyph-name="uniE622" unicode="&#xe622;" 
d="M94 318q-8 0 -13 5q-5 6 -5 13.5t6 12.5l418 383q12 11 24 0l417 -383q5 -5 5.5 -12.5t-4.5 -13t-12.5 -6t-12.5 4.5l-405 372l-406 -372q-5 -4 -12 -4zM864 -159h-227q-7 0 -12.5 5.5t-5.5 12.5v320h-215v-320q0 -7 -5.5 -12.5t-12.5 -5.5h-228q-7 0 -12.5 5.5
t-5.5 12.5v426q0 8 6 13l354 339q12 11 24 0l353 -339q5 -5 5 -13v-426q0 -7 -5 -12.5t-13 -5.5zM655 -123l-9 322l-266 3l-12 -325v320q0 8 5 13t13 5h251q8 0 13 -5t5 -13v-320zM158.5 381q-7.5 0 -13 5.5t-5.5 12.5v257q0 7 5.5 12.5t12.5 5.5h116q7 0 12 -5.5t5 -12.5
v-152q0 -7 -5 -12.5t-12.5 -5.5t-12.5 5.5t-5 12.5v134h-80v-239q0 -7 -5 -12.5t-12.5 -5.5z" />
    <glyph glyph-name="uniE623" unicode="&#xe623;" 
d="M429 -141q-30 0 -51.5 21.5t-21.5 51.5t21.5 51.5t51.5 21.5t51.5 -21.5t21.5 -51.5t-21.5 -51.5t-51.5 -21.5zM429 -31q-15 0 -26 -11t-11 -26t11 -26t26 -11t26 11t11 26t-11 26t-26 11zM765.5 -141q-30.5 0 -52 21.5t-21.5 51.5t21.5 51.5t52 21.5t52 -21.5
t21.5 -51.5t-21.5 -51.5t-52 -21.5zM765.5 -31q-15.5 0 -26.5 -11t-11 -26t11 -26t26.5 -11t26.5 11t11 26t-11 26t-26.5 11zM956.5 544q-5.5 6 -13.5 6h-602h-3h-103l-25 114q-4 14 -18 14h-130q-7 0 -12.5 -5.5t-5.5 -13t5.5 -12.5t12.5 -5h116l123 -550q4 -14 18 -14h576
q7 0 12 4.5t6 11.5l48 436q1 8 -4.5 14z" />
    <glyph glyph-name="uniE624" unicode="&#xe624;" 
d="M512 -156q-90 0 -173 35q-79 34 -140.5 95.5t-95.5 140.5q-35 83 -35 173t35 173q34 79 95.5 140.5t140.5 95.5q83 35 173 35t173 -35q79 -34 140.5 -95.5t95.5 -140.5q35 -83 35 -173t-35 -173q-34 -79 -95.5 -140.5t-140.5 -95.5q-83 -35 -173 -35zM512 701
q-112 0 -207 -55.5t-150.5 -150.5t-55.5 -207t55.5 -207t150.5 -150.5t207 -55.5t207 55.5t150.5 150.5t55.5 207t-55.5 207t-150.5 150.5t-207 55.5zM750 262h-474q-6 0 -10.5 4.5t-4.5 11t4.5 11t10.5 4.5h474q6 0 10.5 -4.5t4.5 -11t-4.5 -11t-10.5 -4.5zM750 133h-474
q-6 0 -10.5 4.5t-4.5 11t4.5 11t10.5 4.5h474q6 0 10.5 -4.5t4.5 -11t-4.5 -11t-10.5 -4.5zM512 15q-6 0 -10.5 4.5t-4.5 10.5v260q0 6 4.5 10.5t10.5 4.5t10.5 -4.5t4.5 -10.5v-260q0 -6 -4.5 -10.5t-10.5 -4.5zM512 254l-207 272q-9 12 3 21.5t22 -2.5l182 -240l178 239
q9 13 21.5 3.5t3.5 -21.5z" />
    <glyph glyph-name="uniE625" unicode="&#xe625;" 
d="M861 -25h-726q-6 0 -10.5 4.5t-4.5 10.5v579q0 6 4.5 10.5t10.5 4.5h391q7 0 11.5 -4.5t4.5 -11t-4.5 -11t-11.5 -4.5h-376v-547h696v290q0 7 4.5 11.5t11 4.5t11 -4.5t4.5 -11.5v-306q0 -6 -4.5 -10.5t-11.5 -4.5zM450 376h-193q-7 0 -11.5 4.5t-4.5 11t4.5 11t11.5 4.5
h193q6 0 10.5 -4.5t4.5 -11t-4.5 -11t-10.5 -4.5zM771 182h-514q-7 0 -11.5 4.5t-4.5 10.5t4.5 10.5t11.5 4.5h514q6 0 10.5 -4.5t4.5 -10.5t-4.5 -10.5t-10.5 -4.5zM771 98h-514q-7 0 -11.5 4.5t-4.5 11t4.5 11t11.5 4.5h514q6 0 10.5 -4.5t4.5 -11t-4.5 -11t-10.5 -4.5z
M734 307q-71 0 -121.5 50.5t-50.5 121.5t50.5 121.5t121.5 50.5t121.5 -50.5t50.5 -121.5t-50.5 -121.5t-121.5 -50.5zM733.5 620q-58.5 0 -100 -41.5t-41.5 -100t41.5 -100t100 -41.5t100 41.5t41.5 100t-41.5 100t-100 41.5zM720.5 409q-6.5 0 -11.5 4l-65 65
q-10 11 0.5 22t21.5 0l54 -54l83 83q11 11 21.5 0t-0.5 -22l-93 -94q-4 -4 -10.5 -4z" />
    <glyph glyph-name="uniE626" unicode="&#xe626;" 
d="M512 -156q-90 0 -173 35q-79 34 -140.5 95.5t-95.5 140.5q-35 83 -35 173t35 173q34 79 95.5 140.5t140.5 95.5q83 35 173 35t173 -35q79 -34 140.5 -95.5t95.5 -140.5q35 -83 35 -173t-35 -173q-34 -79 -95.5 -140.5t-140.5 -95.5q-83 -35 -173 -35zM512 701
q-112 0 -207 -55.5t-150.5 -150.5t-55.5 -207t55.5 -207t150.5 -150.5t207 -55.5t207 55.5t150.5 150.5t55.5 207t-55.5 207t-150.5 150.5t-207 55.5zM614 -23h-1q-6 0 -10 4l-333 339q-5 4 -4 11l6 186q1 6 5 10t10 4l186 4q7 0 11 -5l333 -338q11 -11 0 -22l-193 -189
q-4 -4 -10 -4zM296 336l318 -322l170 167l-317 323l-165 -3zM415 317q-30 0 -51 21q-20 20 -19.5 49.5t20.5 49.5q21 20 50 20t50 -21q20 -21 20 -50t-21 -49t-49 -20zM415 426q-17 0 -28.5 -11t-11.5 -27.5t11.5 -28.5t28.5 -12q16 0 27.5 11.5t11.5 28t-11.5 28
t-27.5 11.5z" />
    <glyph glyph-name="uniE627" unicode="&#xe627;" 
d="M896 -152h-768q-6 0 -10.5 4.5t-4.5 10.5v850q0 6 4.5 10.5t10.5 4.5h511v-31h-496v-818h738v577h30v-593q0 -6 -4.5 -10.5t-10.5 -4.5zM444 470h-213q-6 0 -10.5 4.5t-4.5 11t4.5 11t10.5 4.5h213q6 0 10.5 -4.5t4.5 -11t-4.5 -11t-10.5 -4.5zM797 298h-566
q-6 0 -10.5 4.5t-4.5 11t4.5 11t10.5 4.5h566q6 0 10.5 -4.5t4.5 -11t-4.5 -11t-10.5 -4.5zM797 173h-566q-6 0 -10.5 4.5t-4.5 10.5t4.5 10.5t10.5 4.5h566q6 0 10.5 -4.5t4.5 -10.5t-4.5 -10.5t-10.5 -4.5zM797 47h-566q-6 0 -10.5 4.5t-4.5 10.5t4.5 10.5t10.5 4.5h566
q6 0 10.5 -4.5t4.5 -10.5t-4.5 -10.5t-10.5 -4.5zM896 441h-256q-6 0 -10.5 4.5t-4.5 11.5v256q0 10 9.5 14t16.5 -4l256 -255q7 -8 3 -17.5t-14 -9.5z" />
    <glyph glyph-name="uniE629" unicode="&#xe629;" 
d="M120 -114q-7 0 -11.5 5.5t-3.5 12.5q12 67 45 127q33 59 82 104.5t111 72.5q56 26 118 34v1q-74 17 -123 75q-55 64 -55 148q0 95 67.5 162t162 67t161.5 -67t67 -162q0 -84 -55 -149q-49 -58 -123 -74v-1q134 -17 233 -110t123 -227q2 -7 -3 -12.5t-12 -5.5zM512 664
q-82 0 -140 -58t-58 -140q0 -73 46.5 -128t118.5 -67q13 -2 13 -16l-1 -28q0 -13 -14 -15q-123 -11 -217 -93t-121 -202l746 1q-27 120 -121 202t-218 93q-6 0 -10 4.5t-4 10.5v27q0 13 13 16q72 11 119 66.5t47 128.5q0 82 -58.5 140t-140.5 58z" />
    <glyph glyph-name="uniE62A" unicode="&#xe62a;" 
d="M932 -135h-810q-6 0 -10.5 4.5t-4.5 11.5v828q0 6 4.5 10.5t10.5 4.5h810q6 0 10.5 -4.5t4.5 -10.5v-828q0 -7 -4.5 -11.5t-10.5 -4.5zM138 -104h779v797h-779v-797zM527 429q-4 0 -7 2l-390 248q-14 7 -6.5 20.5t20.5 6.5l383 -244l379 244q14 7 21.5 -6.5t-6.5 -20.5
l-387 -248q-3 -2 -7 -2zM514 154q10 16 19 0v-22h176q13 -9 0 -18h-160q50 -85 157 -104q16 -13 -6 -19q-120 25 -170 116q-38 -84 -170 -113q-18 7 -6 19q123 25 157 101h-166q-16 9 0 18h169v22zM426 249q22 3 13 -16q-35 -41 -75 -72q-19 -3 -13 15q41 32 75 73zM379 346
q29 -34 47 -66q0 -19 -15 -9q-22 31 -47 66q-4 15 15 9zM452 362q9 12 18 0v-204q-9 -16 -18 0v204zM583 349h82q38 0 35 -31q-29 -142 -192 -151q-12 9 0 19q63 3 104 28q-41 41 -85 76q-16 -16 -38 -29q-15 0 -9 16q56 41 94 88q19 6 16 -9zM659 330h-88q-16 -15 -28 -28
q37 -31 84 -75q38 31 54 88q0 15 -22 15z" />
  </font>
</defs>
</svg>
